<svg width="93" height="24" viewBox="0 0 93 24" fill="none" xmlns="http://www.w3.org/2000/svg"><path d="M32.056 18.112q-1.232 0-2.208-.4a3.66 3.66 0 0 1-1.568-1.184q-.576-.784-.608-1.888h2.912q.064.624.432.96.367.32.96.32.608 0 .96-.272.352-.288.352-.784a.9.9 0 0 0-.288-.688 2.1 2.1 0 0 0-.688-.448q-.4-.175-1.152-.4-1.088-.336-1.776-.672a3.3 3.3 0 0 1-1.184-.992q-.496-.656-.496-1.712 0-1.568 1.136-2.448 1.136-.896 2.96-.896 1.856 0 2.992.896 1.136.88 1.216 2.464h-2.96q-.032-.544-.4-.848-.368-.32-.944-.32-.495 0-.8.272-.304.255-.304.752 0 .544.512.848t1.6.656q1.088.368 1.76.704.688.337 1.184.976.495.64.496 1.648 0 .96-.496 1.744-.48.785-1.408 1.248-.929.465-2.192.464m5.236-4.592q0-1.376.512-2.416.527-1.04 1.424-1.6a3.7 3.7 0 0 1 2-.56q.944 0 1.648.384.72.384 1.104 1.008V9.072h2.736V18H43.98v-1.264a2.94 2.94 0 0 1-1.12 1.008q-.705.384-1.648.384a3.67 3.67 0 0 1-1.984-.56q-.897-.576-1.424-1.616-.512-1.056-.512-2.432m6.688.016q0-1.024-.576-1.616a1.82 1.82 0 0 0-1.376-.592 1.87 1.87 0 0 0-1.392.592q-.56.576-.56 1.6t.56 1.632a1.87 1.87 0 0 0 1.392.592 1.82 1.82 0 0 0 1.376-.592q.576-.592.576-1.616m9.195-2.192h-1.472V18h-2.736v-6.656h-.992V9.072h.992v-.256q0-1.648.944-2.496.944-.864 2.768-.864.304 0 .448.016v2.32q-.784-.048-1.104.224t-.32.976v.08h1.472zm.742 2.176q0-1.376.512-2.416.528-1.04 1.424-1.6a3.7 3.7 0 0 1 2-.56q.944 0 1.648.384.72.384 1.104 1.008V9.072h2.736V18h-2.736v-1.264a2.94 2.94 0 0 1-1.12 1.008q-.705.384-1.648.384a3.67 3.67 0 0 1-1.984-.56q-.896-.576-1.424-1.616-.512-1.056-.512-2.432m6.688.016q0-1.024-.576-1.616a1.82 1.82 0 0 0-1.376-.592 1.87 1.87 0 0 0-1.392.592q-.56.576-.56 1.6t.56 1.632a1.87 1.87 0 0 0 1.392.592 1.82 1.82 0 0 0 1.376-.592q.576-.592.576-1.616m7.451-2.976q.48-.736 1.2-1.152a3.05 3.05 0 0 1 1.6-.432v2.896h-.752q-1.025 0-1.536.448-.512.432-.512 1.536V18H65.32V9.072h2.736zm5.484-2.416q-.72 0-1.184-.416a1.4 1.4 0 0 1-.448-1.056q0-.64.448-1.056.464-.432 1.184-.432.704 0 1.152.432.465.416.464 1.056 0 .624-.464 1.056-.448.416-1.152.416m1.36.928V18h-2.736V9.072zm13.375-.096q1.663 0 2.64 1.008.992 1.008.992 2.8V18h-2.72v-4.848q0-.864-.464-1.328-.449-.48-1.248-.48-.8 0-1.264.48-.448.465-.448 1.328V18h-2.72v-4.848q0-.864-.464-1.328-.448-.48-1.248-.48t-1.264.48q-.448.465-.448 1.328V18h-2.736V9.072h2.736v1.12a2.86 2.86 0 0 1 1.088-.88 3.35 3.35 0 0 1 1.52-.336q1.008 0 1.792.432.8.432 1.248 1.232.463-.735 1.264-1.2a3.4 3.4 0 0 1 1.744-.464M22 12c0 6.075-4.925 11-11 11S0 18.075 0 12 4.925 1 11 1s11 4.925 11 11M4.95 12a6.05 6.05 0 1 0 12.1 0 6.05 6.05 0 0 0-12.1 0" fill="currentColor"/></svg>